<svg id="svg" version="1.1" width="400" height="113.33333333333334" viewBox="0 0 400 113.33333333333334" xmlns="http://www.w3.org/2000/svg" xmlns:xlink="http://www.w3.org/1999/xlink" ><g id="svgg"><path id="path0" d="M129.870 27.664 C 129.291 27.927,129.079 28.154,128.747 28.869 L 128.337 29.750 128.335 53.367 C 128.333 80.417,128.207 78.209,129.887 80.467 C 132.005 83.314,137.465 84.921,140.917 83.715 C 141.467 83.522,142.474 83.280,143.154 83.177 C 146.211 82.711,147.321 80.725,146.420 77.337 C 145.788 74.964,144.855 74.419,141.417 74.411 C 138.395 74.405,138.405 74.406,138.226 74.042 C 138.148 73.881,138.046 63.925,138.000 51.917 C 137.909 28.060,137.980 29.700,136.987 28.437 C 136.096 27.306,131.710 26.829,129.870 27.664 M233.417 27.647 C 231.901 28.343,231.667 29.086,231.667 33.192 C 231.667 38.746,232.437 39.665,236.924 39.466 C 240.370 39.312,241.167 38.134,241.166 33.203 C 241.164 29.430,240.845 28.470,239.338 27.708 C 238.323 27.196,234.486 27.156,233.417 27.647 M134.000 27.832 C 134.167 27.938,133.946 27.957,133.333 27.889 C 132.829 27.833,132.385 27.760,132.347 27.727 C 132.184 27.586,133.773 27.687,134.000 27.832 M237.276 27.794 C 237.382 27.862,236.957 27.917,236.333 27.917 C 235.709 27.917,235.285 27.862,235.391 27.794 C 235.497 27.727,235.921 27.672,236.333 27.672 C 236.746 27.672,237.170 27.727,237.276 27.794 M89.927 28.677 C 88.553 28.907,87.674 29.816,87.346 31.348 C 87.059 32.685,87.103 80.187,87.392 81.153 C 87.891 82.823,88.877 83.248,92.250 83.248 C 97.529 83.248,97.328 83.749,97.331 70.625 L 97.333 60.667 107.470 60.667 C 118.712 60.667,118.806 60.659,119.772 59.630 C 121.320 57.979,121.250 53.263,119.659 51.975 C 118.716 51.212,118.024 51.167,107.311 51.167 L 97.333 51.167 97.333 44.333 L 97.333 37.500 109.803 37.500 C 125.866 37.500,125.336 37.646,125.332 33.214 C 125.329 30.324,124.512 29.080,122.348 28.670 C 121.265 28.464,91.158 28.471,89.927 28.677 M182.037 28.668 C 179.842 29.129,178.978 30.637,179.747 32.667 C 179.904 33.079,180.145 33.754,180.283 34.167 C 180.753 35.567,181.671 37.914,181.979 38.500 C 182.148 38.821,182.450 39.597,182.651 40.226 C 182.851 40.854,183.158 41.566,183.331 41.809 C 183.505 42.052,183.770 42.682,183.919 43.210 C 184.069 43.738,184.364 44.376,184.574 44.627 C 184.785 44.878,185.013 45.343,185.083 45.660 C 185.152 45.977,185.357 46.577,185.538 46.993 C 185.719 47.410,185.973 48.101,186.103 48.531 C 186.234 48.961,186.563 49.737,186.837 50.256 C 187.110 50.776,187.333 51.328,187.333 51.484 C 187.333 51.640,187.555 52.117,187.825 52.543 C 188.095 52.969,188.402 53.640,188.507 54.034 C 188.612 54.428,188.909 55.163,189.168 55.667 C 189.427 56.171,189.767 56.996,189.925 57.500 C 190.082 58.004,190.269 58.492,190.340 58.583 C 190.411 58.675,190.630 59.227,190.826 59.809 C 191.022 60.392,191.291 61.035,191.425 61.239 C 191.558 61.443,191.786 62.016,191.931 62.513 C 192.076 63.010,192.381 63.738,192.609 64.132 C 192.836 64.525,193.137 65.238,193.277 65.715 C 193.417 66.193,193.698 66.808,193.900 67.083 C 194.103 67.358,194.363 67.921,194.478 68.333 C 194.594 68.746,194.862 69.458,195.075 69.917 C 195.287 70.375,195.644 71.200,195.868 71.750 C 196.187 72.536,196.343 72.740,196.596 72.701 C 196.854 72.662,196.869 72.685,196.674 72.815 C 196.386 73.009,196.780 74.472,197.395 75.492 C 197.591 75.817,197.892 76.493,198.062 76.994 C 198.400 77.986,198.808 78.702,198.977 78.598 C 199.035 78.563,199.089 78.782,199.095 79.086 C 199.130 80.680,200.838 82.830,202.322 83.149 C 206.158 83.971,209.167 82.886,209.984 80.384 C 210.188 79.760,210.476 79.063,210.625 78.834 C 210.911 78.393,211.654 76.417,212.160 74.750 C 212.326 74.200,212.659 73.412,212.899 73.000 C 213.138 72.587,213.416 71.955,213.515 71.595 C 213.615 71.234,213.878 70.672,214.102 70.345 C 214.325 70.018,214.583 69.450,214.675 69.083 C 214.767 68.717,215.065 67.967,215.337 67.417 C 216.155 65.762,217.194 62.958,217.110 62.635 C 217.067 62.469,217.087 62.367,217.155 62.410 C 217.325 62.515,217.919 61.415,218.187 60.500 C 218.308 60.087,218.579 59.493,218.790 59.180 C 219.001 58.866,219.292 58.204,219.436 57.709 C 219.580 57.214,219.916 56.394,220.182 55.887 C 220.449 55.381,220.667 54.843,220.668 54.691 C 220.668 54.540,220.789 54.192,220.936 53.917 C 221.083 53.642,221.378 52.927,221.590 52.329 C 221.802 51.732,222.161 50.869,222.387 50.413 C 222.613 49.957,222.853 49.321,222.921 49.000 C 222.988 48.679,223.219 48.207,223.434 47.951 C 223.649 47.695,223.901 47.170,223.995 46.784 C 224.089 46.399,224.429 45.585,224.750 44.976 C 225.071 44.367,225.333 43.722,225.333 43.541 C 225.333 43.361,225.567 42.775,225.853 42.240 C 226.351 41.307,226.546 40.816,227.430 38.281 C 227.648 37.656,227.969 36.943,228.143 36.697 C 228.317 36.451,228.596 35.800,228.763 35.250 C 228.929 34.700,229.186 34.063,229.333 33.833 C 229.980 32.823,230.214 31.433,229.859 30.706 C 228.937 28.821,228.403 28.583,225.088 28.583 C 221.927 28.583,221.395 28.787,220.343 30.401 C 219.728 31.345,219.000 33.029,219.000 33.507 C 219.000 33.607,218.806 33.943,218.570 34.253 C 218.333 34.564,218.027 35.248,217.889 35.775 C 217.752 36.301,217.466 37.075,217.253 37.494 C 216.661 38.662,216.423 39.678,216.695 39.873 C 216.860 39.991,216.843 40.008,216.626 39.938 C 216.305 39.835,216.021 40.277,215.676 41.417 C 215.565 41.783,215.262 42.533,215.004 43.083 C 214.745 43.633,214.479 44.343,214.412 44.660 C 214.346 44.978,214.114 45.505,213.897 45.833 C 213.681 46.160,213.387 46.821,213.244 47.301 C 213.102 47.781,212.812 48.428,212.602 48.739 C 212.391 49.050,212.127 49.667,212.015 50.110 C 211.904 50.554,211.597 51.367,211.334 51.917 C 211.071 52.467,210.802 53.142,210.735 53.417 C 210.668 53.692,210.519 54.067,210.403 54.250 C 210.288 54.433,210.067 55.033,209.914 55.583 C 209.760 56.133,209.463 56.850,209.252 57.177 C 209.042 57.503,208.735 58.216,208.569 58.760 C 208.403 59.305,208.141 59.938,207.986 60.167 C 207.831 60.396,207.554 61.071,207.369 61.667 C 207.184 62.262,206.838 63.136,206.600 63.608 C 206.362 64.079,206.167 64.567,206.167 64.691 C 206.166 64.815,205.950 65.374,205.685 65.934 C 205.420 66.494,205.152 67.187,205.089 67.476 C 204.924 68.226,204.167 67.827,204.167 66.990 C 204.167 66.626,203.168 64.646,203.028 64.731 C 202.967 64.769,202.906 64.521,202.894 64.181 C 202.881 63.840,202.684 63.192,202.456 62.739 C 202.228 62.287,201.985 61.654,201.917 61.333 C 201.848 61.012,201.619 60.406,201.407 59.985 C 201.195 59.565,200.860 58.740,200.663 58.152 C 200.466 57.564,200.194 56.960,200.059 56.809 C 199.924 56.658,199.674 56.075,199.504 55.513 C 199.334 54.951,199.029 54.212,198.827 53.871 C 198.625 53.529,198.350 52.875,198.215 52.417 C 198.081 51.958,197.801 51.283,197.593 50.917 C 197.384 50.550,197.164 50.041,197.102 49.786 C 197.041 49.530,196.777 48.855,196.517 48.286 C 196.257 47.716,195.989 46.987,195.923 46.667 C 195.856 46.346,195.594 45.708,195.340 45.250 C 195.086 44.792,194.823 44.154,194.756 43.833 C 194.615 43.158,193.870 41.792,193.699 41.895 C 193.635 41.934,193.573 41.686,193.560 41.345 C 193.547 41.003,193.346 40.317,193.112 39.820 C 192.879 39.323,192.523 38.467,192.322 37.917 C 192.120 37.367,191.889 36.833,191.809 36.730 C 191.728 36.627,191.542 36.139,191.395 35.646 C 191.249 35.153,190.922 34.337,190.669 33.833 C 190.415 33.329,190.152 32.654,190.084 32.333 C 189.830 31.141,188.555 29.486,187.417 28.872 C 186.832 28.557,183.217 28.420,182.037 28.668 M113.554 28.958 C 109.688 28.983,103.313 28.983,99.387 28.958 C 95.462 28.933,98.625 28.913,106.417 28.913 C 114.208 28.913,117.420 28.933,113.554 28.958 M229.252 30.820 C 229.434 31.042,229.494 31.172,229.385 31.108 C 229.276 31.045,229.110 31.125,229.015 31.288 C 228.921 31.451,228.841 31.494,228.838 31.385 C 228.836 31.276,228.910 31.139,229.003 31.082 C 229.096 31.024,229.128 30.906,229.075 30.819 C 229.021 30.732,228.907 30.704,228.822 30.757 C 228.645 30.866,228.609 30.613,228.778 30.444 C 228.839 30.383,228.896 30.352,228.905 30.375 C 228.913 30.398,229.069 30.598,229.252 30.820 M137.402 30.601 C 137.547 30.656,137.625 30.765,137.577 30.844 C 137.470 31.016,137.000 30.857,137.000 30.649 C 137.000 30.473,137.053 30.467,137.402 30.601 M137.292 61.862 C 137.267 67.484,137.247 62.933,137.247 51.750 C 137.247 40.567,137.267 35.967,137.292 41.529 C 137.316 47.090,137.316 56.240,137.292 61.862 M232.123 34.458 C 232.090 34.985,232.063 34.554,232.063 33.500 C 232.063 32.446,232.090 32.015,232.123 32.542 C 232.156 33.069,232.156 33.931,232.123 34.458 M97.004 44.312 L 96.993 51.333 106.538 51.345 C 111.788 51.351,116.233 51.421,116.417 51.500 C 116.608 51.582,112.516 51.648,106.819 51.655 C 101.358 51.661,96.858 51.635,96.819 51.597 C 96.781 51.559,96.770 48.286,96.795 44.323 C 96.820 40.360,96.879 37.157,96.927 37.205 C 96.975 37.253,97.009 40.451,97.004 44.312 M182.646 38.272 C 182.930 38.894,182.753 38.958,182.447 38.344 C 182.307 38.063,182.249 37.833,182.319 37.833 C 182.389 37.833,182.536 38.031,182.646 38.272 M239.082 38.498 C 239.143 38.596,239.068 38.618,238.898 38.553 C 238.689 38.473,238.649 38.502,238.748 38.664 C 238.836 38.807,238.820 38.845,238.703 38.772 C 238.602 38.710,238.443 38.792,238.349 38.955 C 238.254 39.117,238.175 39.181,238.172 39.096 C 238.158 38.670,238.890 38.188,239.082 38.498 M237.333 38.792 C 237.333 38.860,236.846 38.917,236.250 38.917 C 235.654 38.917,235.167 38.860,235.167 38.792 C 235.167 38.723,235.654 38.667,236.250 38.667 C 236.846 38.667,237.333 38.723,237.333 38.792 M183.589 40.678 C 183.735 40.959,183.821 41.278,183.781 41.386 C 183.741 41.495,183.654 41.382,183.589 41.136 C 183.523 40.890,183.383 40.709,183.276 40.734 C 183.170 40.758,183.135 40.749,183.199 40.712 C 183.263 40.675,183.273 40.537,183.223 40.406 C 183.052 39.962,183.323 40.163,183.589 40.678 M260.833 41.614 C 259.909 41.798,256.379 43.051,255.834 43.389 C 255.514 43.587,254.989 43.870,254.667 44.017 C 253.669 44.473,250.686 47.003,249.595 48.319 C 248.229 49.967,247.478 51.011,247.226 51.615 C 247.091 51.939,246.802 52.477,246.586 52.811 C 246.223 53.368,245.455 55.256,245.016 56.668 C 244.354 58.798,244.391 66.817,245.073 69.000 C 245.483 70.312,246.417 72.465,246.723 72.803 C 246.885 72.983,247.152 73.482,247.315 73.912 C 248.019 75.766,253.968 81.833,255.081 81.833 C 255.151 81.833,255.647 82.056,256.183 82.329 C 256.720 82.601,257.704 82.970,258.371 83.148 C 259.038 83.327,260.033 83.640,260.583 83.845 C 262.136 84.423,268.596 84.434,270.083 83.861 C 270.633 83.650,271.709 83.333,272.473 83.159 C 277.469 82.017,283.363 75.943,282.818 72.498 C 282.518 70.601,281.976 70.107,279.809 69.753 C 279.043 69.629,278.206 69.446,277.947 69.347 C 276.646 68.847,275.581 69.255,274.416 70.696 C 272.727 72.787,271.269 74.105,270.223 74.486 C 269.688 74.681,268.950 75.008,268.583 75.212 C 267.596 75.762,263.517 75.773,262.750 75.228 C 262.475 75.032,261.740 74.720,261.118 74.533 C 259.225 73.967,257.047 71.953,256.082 69.876 C 255.751 69.165,255.364 68.355,255.222 68.077 C 254.578 66.820,253.368 66.927,269.336 66.833 L 283.583 66.750 284.182 66.378 C 284.544 66.152,284.906 65.727,285.098 65.298 C 285.949 63.408,285.331 55.250,284.353 55.462 C 284.237 55.488,284.190 55.430,284.249 55.335 C 284.426 55.049,283.839 53.312,283.234 52.330 C 282.922 51.824,282.667 51.320,282.667 51.211 C 282.667 51.101,282.459 50.765,282.206 50.464 C 281.953 50.163,281.463 49.496,281.118 48.981 C 280.291 47.748,277.461 45.194,275.938 44.307 C 274.048 43.205,273.290 42.827,272.667 42.672 C 272.254 42.569,271.467 42.283,270.917 42.035 C 269.942 41.596,262.491 41.285,260.833 41.614 M353.667 41.657 C 352.633 41.800,349.718 42.846,348.833 43.390 C 348.512 43.588,347.976 43.899,347.641 44.083 C 346.385 44.772,344.368 46.981,343.893 48.189 C 343.736 48.589,343.423 49.162,343.197 49.462 C 342.048 50.994,341.961 58.183,343.073 59.719 C 343.218 59.919,343.663 60.533,344.061 61.083 C 344.861 62.186,346.931 63.625,348.347 64.063 C 348.767 64.192,349.517 64.526,350.013 64.804 C 350.510 65.082,351.217 65.361,351.583 65.423 C 351.950 65.486,352.813 65.786,353.500 66.090 C 354.251 66.422,355.274 66.714,356.062 66.822 C 356.783 66.921,357.716 67.154,358.135 67.339 C 358.554 67.524,359.501 67.783,360.240 67.913 C 362.775 68.360,364.559 69.352,365.101 70.614 C 365.565 71.696,364.321 74.305,363.212 74.575 C 362.958 74.636,362.450 74.889,362.083 75.135 C 361.427 75.576,361.369 75.584,358.277 75.635 L 355.137 75.687 354.072 75.173 C 353.486 74.891,352.761 74.614,352.462 74.559 C 351.797 74.436,349.308 73.139,348.478 72.482 C 346.190 70.672,344.033 70.700,342.476 72.558 C 340.901 74.436,340.468 76.120,341.151 77.713 C 341.642 78.859,344.772 81.248,346.649 81.910 C 346.997 82.033,347.582 82.287,347.948 82.473 C 348.314 82.660,349.169 82.961,349.848 83.143 C 350.528 83.324,351.533 83.639,352.083 83.842 C 354.019 84.557,361.509 84.440,363.767 83.659 C 364.308 83.472,365.054 83.250,365.425 83.166 C 368.285 82.519,372.353 79.615,373.301 77.544 C 373.460 77.199,373.787 76.579,374.028 76.167 C 375.320 73.958,375.174 67.717,373.780 65.617 C 373.443 65.109,373.167 64.630,373.167 64.551 C 373.167 63.870,369.111 60.882,367.667 60.499 C 367.254 60.390,366.460 60.081,365.901 59.812 C 365.176 59.464,364.436 59.272,363.318 59.143 C 362.294 59.026,361.374 58.801,360.667 58.495 C 360.071 58.238,359.000 57.946,358.287 57.848 C 357.574 57.749,356.707 57.524,356.360 57.347 C 356.014 57.170,355.252 56.902,354.667 56.750 C 351.229 55.859,350.718 53.122,353.604 51.062 L 354.743 50.250 358.246 50.262 L 361.750 50.273 363.174 50.953 C 363.957 51.326,365.267 52.027,366.084 52.510 C 368.887 54.166,370.733 53.903,372.618 51.579 C 375.092 48.529,371.917 43.773,366.621 42.596 C 366.050 42.469,365.133 42.192,364.583 41.980 C 363.514 41.569,355.926 41.344,353.667 41.657 M144.789 41.838 C 143.207 42.235,142.588 43.217,142.585 45.333 C 142.583 46.816,143.140 48.316,143.650 48.204 C 143.764 48.179,143.812 48.234,143.755 48.326 C 143.604 48.570,144.109 50.146,144.558 50.828 C 144.771 51.152,145.102 51.867,145.293 52.417 C 146.030 54.533,146.508 55.724,146.831 56.246 C 147.016 56.545,147.167 56.906,147.167 57.049 C 147.167 57.192,147.436 57.821,147.766 58.446 C 148.095 59.072,148.468 59.922,148.594 60.335 C 148.720 60.749,149.009 61.340,149.236 61.648 C 149.463 61.956,149.696 62.442,149.753 62.729 C 149.811 63.015,150.073 63.700,150.336 64.250 C 151.291 66.248,152.167 68.286,152.169 68.515 C 152.170 68.644,152.365 69.087,152.603 69.500 C 152.841 69.912,153.140 70.595,153.267 71.017 C 153.394 71.439,153.670 72.039,153.879 72.351 C 154.089 72.662,154.358 73.254,154.478 73.667 C 154.598 74.079,154.877 74.730,155.098 75.113 C 155.319 75.496,155.500 75.887,155.500 75.982 C 155.500 76.076,155.762 76.707,156.083 77.383 C 156.404 78.059,156.667 78.703,156.667 78.815 C 156.667 78.927,156.892 79.472,157.167 80.026 C 157.776 81.255,157.776 81.192,157.165 82.398 C 156.891 82.938,156.667 83.502,156.667 83.650 C 156.667 83.798,156.486 84.260,156.264 84.676 C 156.043 85.091,155.751 85.855,155.616 86.373 C 155.481 86.890,155.228 87.524,155.054 87.782 C 154.880 88.039,154.631 88.463,154.500 88.722 C 154.091 89.533,153.554 89.779,151.984 89.874 C 149.143 90.045,148.333 91.105,148.333 94.657 C 148.333 98.431,149.375 99.406,153.419 99.413 L 155.754 99.417 157.085 98.772 C 157.817 98.418,158.829 97.931,159.333 97.689 C 160.621 97.074,162.331 95.290,162.740 94.136 C 162.913 93.649,163.227 93.041,163.439 92.785 C 163.650 92.529,163.976 91.806,164.163 91.179 C 164.350 90.552,164.605 89.954,164.729 89.851 C 164.854 89.747,165.081 89.232,165.234 88.706 C 165.387 88.180,165.732 87.300,166.000 86.750 C 166.473 85.781,166.852 84.716,167.502 82.539 C 167.674 81.964,167.968 81.298,168.156 81.059 C 168.345 80.819,168.650 80.117,168.834 79.498 C 169.018 78.879,169.271 78.287,169.396 78.184 C 169.520 78.081,169.748 77.566,169.901 77.040 C 170.054 76.514,170.402 75.633,170.674 75.083 C 170.945 74.533,171.325 73.633,171.516 73.083 C 171.708 72.533,172.047 71.561,172.270 70.922 C 172.494 70.283,172.778 69.605,172.902 69.416 C 173.025 69.227,173.262 68.625,173.428 68.078 C 173.594 67.531,173.819 66.971,173.928 66.833 C 174.272 66.400,174.611 65.612,174.818 64.763 C 174.929 64.313,175.196 63.638,175.413 63.263 C 175.629 62.889,175.894 62.246,176.002 61.833 C 176.110 61.421,176.377 60.692,176.595 60.213 C 176.813 59.734,177.040 59.134,177.099 58.879 C 177.158 58.625,177.298 58.267,177.411 58.083 C 178.075 57.001,178.513 55.229,178.075 55.397 C 177.919 55.457,177.859 55.427,177.923 55.323 C 177.982 55.227,178.117 55.178,178.222 55.213 C 178.521 55.313,178.943 54.659,179.334 53.489 C 179.531 52.899,179.949 51.900,180.263 51.269 C 180.577 50.638,180.833 50.015,180.833 49.885 C 180.833 49.754,181.019 49.316,181.245 48.910 C 182.488 46.684,182.631 43.607,181.537 42.617 C 180.282 41.481,176.022 41.345,174.469 42.391 C 173.864 42.798,172.480 45.125,172.173 46.250 C 171.905 47.231,170.858 49.969,170.421 50.833 C 170.213 51.246,169.948 51.996,169.833 52.500 C 169.718 53.004,169.530 53.529,169.416 53.667 C 169.070 54.081,168.727 54.869,168.514 55.738 C 168.404 56.190,168.175 56.754,168.006 56.992 C 167.837 57.229,167.573 57.834,167.420 58.337 C 167.267 58.839,166.962 59.663,166.742 60.167 C 165.942 62.000,165.129 64.410,165.106 65.016 C 165.094 65.357,165.016 65.625,164.933 65.610 C 164.463 65.526,163.462 68.179,163.765 68.706 C 163.832 68.822,163.830 68.865,163.760 68.802 C 163.690 68.739,163.462 68.886,163.254 69.128 L 162.875 69.568 162.500 68.834 C 162.294 68.430,161.984 67.687,161.810 67.184 C 161.637 66.680,161.381 66.093,161.241 65.879 C 161.101 65.666,160.840 65.016,160.660 64.435 C 160.481 63.854,160.194 63.200,160.023 62.981 C 159.852 62.762,159.591 62.171,159.443 61.667 C 159.124 60.581,158.561 59.609,158.332 59.751 C 158.243 59.806,158.037 59.769,157.876 59.668 C 157.628 59.512,157.645 59.501,157.983 59.594 C 158.493 59.735,158.432 59.355,157.588 57.139 C 156.620 54.603,156.383 54.161,156.046 54.269 C 155.799 54.349,155.791 54.336,156.000 54.189 C 156.293 53.982,155.869 52.522,155.341 51.917 C 155.181 51.733,154.955 51.208,154.839 50.750 C 154.723 50.292,154.423 49.574,154.173 49.155 C 153.923 48.736,153.666 48.174,153.603 47.905 C 153.540 47.636,153.275 46.967,153.013 46.417 C 152.751 45.867,152.405 45.049,152.245 44.599 C 151.405 42.247,148.074 41.014,144.789 41.838 M234.036 41.852 C 233.094 42.076,232.310 42.880,231.951 43.990 C 231.690 44.799,231.667 46.350,231.667 62.858 C 231.667 82.331,231.629 81.490,232.540 82.459 C 233.659 83.650,238.727 83.669,240.072 82.487 C 241.234 81.467,241.176 82.562,241.127 62.560 L 241.083 44.560 240.583 43.581 C 239.739 41.930,236.883 41.176,234.036 41.852 M262.083 41.833 C 261.886 41.918,261.847 41.981,261.986 41.988 C 262.116 41.995,262.177 42.045,262.122 42.100 C 261.972 42.250,261.646 42.001,261.757 41.822 C 261.810 41.736,261.980 41.672,262.135 41.678 C 262.365 41.688,262.355 41.717,262.083 41.833 M285.789 41.848 C 284.885 42.061,284.362 42.457,283.970 43.226 C 283.224 44.688,284.005 49.036,284.958 48.729 C 285.185 48.656,285.199 48.672,285.019 48.800 C 284.736 49.001,284.833 49.439,285.475 50.865 C 285.735 51.443,286.084 52.292,286.250 52.750 C 286.416 53.208,286.684 53.754,286.845 53.963 C 287.007 54.172,287.189 54.640,287.250 55.003 C 287.312 55.365,287.553 55.944,287.788 56.289 C 288.022 56.634,288.351 57.318,288.520 57.809 C 288.689 58.300,288.976 59.013,289.157 59.392 C 289.338 59.772,289.661 60.533,289.874 61.083 C 290.183 61.883,290.326 62.074,290.588 62.035 C 290.828 61.999,290.857 62.026,290.695 62.136 C 290.404 62.333,290.682 63.428,291.319 64.583 C 291.571 65.042,291.909 65.826,292.070 66.325 C 292.231 66.825,292.506 67.417,292.681 67.640 C 292.857 67.863,293.111 68.417,293.246 68.871 C 293.380 69.324,293.660 69.970,293.868 70.306 C 294.076 70.642,294.368 71.254,294.518 71.667 C 294.843 72.566,295.353 73.808,296.089 75.500 C 296.388 76.188,296.676 76.943,296.729 77.179 C 296.782 77.415,297.014 77.887,297.246 78.228 C 297.477 78.569,297.667 78.917,297.667 79.001 C 297.667 80.365,299.688 82.870,301.019 83.155 C 302.105 83.388,304.419 83.383,305.533 83.145 C 306.776 82.879,308.278 81.180,308.673 79.593 C 308.765 79.221,309.061 78.429,309.331 77.833 C 309.897 76.582,310.550 74.969,311.007 73.691 C 311.183 73.201,311.468 72.563,311.641 72.275 C 311.814 71.986,312.043 71.387,312.151 70.943 C 312.508 69.467,313.022 68.982,313.372 69.792 C 313.591 70.298,314.262 71.182,314.356 71.089 C 314.390 71.056,314.423 71.267,314.432 71.556 C 314.447 72.091,314.936 73.473,315.858 75.583 C 316.139 76.225,316.472 77.077,316.598 77.476 C 316.919 78.490,317.470 79.334,317.742 79.230 C 317.865 79.183,318.015 79.223,318.075 79.320 C 318.141 79.427,318.083 79.457,317.925 79.397 C 317.376 79.186,318.008 81.285,318.718 82.028 C 320.091 83.464,325.039 83.851,326.575 82.643 C 327.022 82.292,328.557 79.377,328.744 78.526 C 328.807 78.243,329.030 77.756,329.242 77.445 C 329.453 77.133,329.721 76.587,329.837 76.231 C 329.953 75.875,330.251 75.133,330.500 74.583 C 330.749 74.033,331.048 73.289,331.165 72.930 C 331.282 72.571,331.511 72.046,331.675 71.764 C 331.838 71.481,332.068 70.912,332.185 70.500 C 332.302 70.087,332.572 69.517,332.785 69.232 C 333.236 68.625,333.734 67.077,333.565 66.804 C 333.498 66.695,333.522 66.661,333.623 66.723 C 333.853 66.865,334.199 66.310,334.646 65.083 C 334.847 64.533,335.186 63.746,335.401 63.333 C 335.615 62.921,335.843 62.358,335.906 62.083 C 335.970 61.808,336.196 61.208,336.409 60.750 C 337.070 59.326,337.135 58.432,336.533 59.033 C 336.400 59.167,336.333 59.173,336.333 59.051 C 336.333 58.842,336.800 58.626,336.993 58.746 C 337.229 58.891,337.634 58.263,337.992 57.194 C 338.187 56.614,338.561 55.751,338.824 55.278 C 339.087 54.804,339.355 54.154,339.421 53.833 C 339.487 53.512,339.712 52.950,339.921 52.583 C 340.131 52.217,340.616 51.092,340.999 50.083 C 341.383 49.075,341.801 48.063,341.928 47.833 C 342.666 46.510,342.749 46.222,342.742 45.000 C 342.730 42.714,341.763 41.864,338.998 41.706 C 335.572 41.510,333.748 42.437,333.169 44.667 C 333.062 45.079,332.793 45.682,332.572 46.007 C 331.986 46.867,331.572 48.335,331.862 48.530 C 332.026 48.642,332.002 48.668,331.768 48.632 C 331.383 48.572,330.974 49.245,330.684 50.417 C 330.571 50.875,330.383 51.400,330.266 51.583 C 330.149 51.767,329.921 52.292,329.758 52.750 C 329.596 53.208,329.291 53.921,329.081 54.333 C 328.871 54.746,328.602 55.421,328.484 55.833 C 328.367 56.246,328.106 56.785,327.904 57.031 C 327.703 57.278,327.381 57.999,327.188 58.635 C 326.995 59.270,326.734 59.875,326.607 59.980 C 326.481 60.085,326.245 60.601,326.082 61.127 C 325.919 61.653,325.600 62.454,325.374 62.907 C 325.147 63.361,324.829 64.111,324.667 64.574 C 324.504 65.037,324.208 65.861,324.007 66.404 C 323.807 66.948,323.679 67.529,323.723 67.696 C 323.766 67.864,323.739 67.961,323.662 67.914 C 323.585 67.866,323.322 68.088,323.079 68.408 L 322.636 68.989 322.193 68.464 C 321.949 68.176,321.628 67.522,321.478 67.011 C 321.167 65.950,320.674 64.692,320.003 63.250 C 319.748 62.700,319.413 61.847,319.259 61.355 C 319.106 60.862,318.819 60.241,318.621 59.974 L 318.262 59.489 318.777 58.536 C 319.060 58.012,319.343 57.358,319.405 57.083 C 319.468 56.808,319.731 56.171,319.989 55.667 C 320.248 55.163,320.515 54.487,320.583 54.167 C 320.652 53.846,320.877 53.246,321.083 52.833 C 321.290 52.421,321.515 51.821,321.584 51.500 C 321.653 51.179,321.882 50.711,322.093 50.460 C 322.303 50.209,322.598 49.572,322.747 49.044 C 322.897 48.515,323.152 47.896,323.315 47.667 C 324.939 45.376,324.126 42.534,321.665 41.903 C 317.976 40.957,315.216 42.707,314.415 46.500 C 314.347 46.821,314.149 47.285,313.975 47.532 C 313.800 47.779,313.547 48.245,313.412 48.568 C 313.024 49.498,312.560 49.103,312.160 47.500 C 312.057 47.087,311.802 46.450,311.593 46.083 C 311.385 45.717,311.162 45.202,311.099 44.940 C 310.544 42.632,308.716 41.521,305.794 41.715 C 303.061 41.898,302.234 42.802,302.373 45.458 C 302.464 47.198,303.154 48.965,303.705 48.871 C 303.854 48.845,304.022 48.901,304.079 48.994 C 304.141 49.093,304.077 49.122,303.925 49.064 C 303.506 48.903,303.850 50.498,304.432 51.417 C 304.548 51.600,304.838 52.269,305.075 52.904 C 305.312 53.538,305.567 54.138,305.641 54.237 C 305.715 54.336,305.870 54.754,305.985 55.167 C 306.101 55.579,306.370 56.232,306.582 56.618 C 307.606 58.476,307.612 60.137,306.602 62.131 C 306.381 62.566,306.112 63.258,306.003 63.669 C 305.895 64.080,305.711 64.567,305.596 64.750 C 305.480 64.933,305.218 65.533,305.015 66.083 C 304.812 66.633,304.471 67.458,304.257 67.917 C 304.044 68.375,303.824 68.887,303.768 69.056 C 303.581 69.618,303.254 69.237,302.786 67.911 C 302.531 67.188,302.215 66.479,302.084 66.334 C 301.861 66.088,301.395 64.873,300.648 62.596 C 300.470 62.053,300.175 61.366,299.992 61.070 C 299.809 60.774,299.503 60.056,299.312 59.476 C 299.122 58.895,298.834 58.232,298.673 58.002 C 298.512 57.772,298.248 57.171,298.086 56.667 C 297.925 56.163,297.622 55.563,297.414 55.333 C 297.206 55.104,296.983 54.667,296.918 54.362 C 296.754 53.583,295.528 50.351,295.168 49.750 C 295.004 49.475,294.820 49.014,294.759 48.726 C 294.698 48.438,294.436 47.868,294.176 47.458 C 293.917 47.049,293.586 46.306,293.441 45.807 C 292.470 42.468,289.556 40.961,285.789 41.848 M356.000 41.833 C 355.771 41.907,355.690 41.974,355.819 41.983 C 355.949 41.993,356.016 42.039,355.968 42.087 C 355.920 42.135,355.752 42.125,355.593 42.064 C 355.233 41.926,355.571 41.664,356.083 41.686 C 356.358 41.697,356.343 41.723,356.000 41.833 M263.750 42.000 C 263.567 42.079,263.304 42.143,263.167 42.143 C 263.009 42.143,263.040 42.090,263.250 42.000 C 263.433 41.921,263.696 41.857,263.833 41.857 C 263.991 41.857,263.960 41.910,263.750 42.000 M267.083 42.000 C 267.508 42.183,267.070 42.183,266.500 42.000 C 266.165 41.893,266.149 41.866,266.417 41.862 C 266.600 41.859,266.900 41.921,267.083 42.000 M357.417 42.000 C 357.233 42.079,356.971 42.143,356.833 42.143 C 356.676 42.143,356.707 42.090,356.917 42.000 C 357.100 41.921,357.363 41.857,357.500 41.857 C 357.658 41.857,357.627 41.910,357.417 42.000 M360.417 42.000 C 360.841 42.183,360.403 42.183,359.833 42.000 C 359.498 41.893,359.482 41.866,359.750 41.862 C 359.933 41.859,360.233 41.921,360.417 42.000 M179.806 42.351 C 179.926 42.544,179.949 42.655,179.857 42.598 C 179.765 42.541,179.643 42.571,179.585 42.664 C 179.527 42.757,179.395 42.833,179.292 42.833 C 179.188 42.833,179.249 42.715,179.426 42.570 C 179.690 42.355,179.697 42.323,179.467 42.395 C 179.269 42.456,179.212 42.410,179.276 42.242 C 179.404 41.909,179.548 41.939,179.806 42.351 M238.233 42.265 C 238.354 42.582,238.223 42.838,237.948 42.820 C 237.805 42.811,237.808 42.784,237.958 42.723 C 238.073 42.677,238.167 42.562,238.167 42.468 C 238.167 42.374,238.058 42.339,237.925 42.390 C 237.764 42.452,237.714 42.403,237.776 42.242 C 237.898 41.924,238.106 41.935,238.233 42.265 M286.121 42.326 C 286.108 42.506,286.063 42.619,286.022 42.578 C 285.981 42.537,285.844 42.589,285.717 42.694 C 285.542 42.839,285.437 42.836,285.285 42.683 C 285.127 42.524,285.152 42.507,285.402 42.602 C 285.642 42.693,285.687 42.669,285.585 42.503 C 285.494 42.355,285.513 42.322,285.642 42.401 C 285.750 42.468,285.880 42.406,285.936 42.261 C 286.072 41.905,286.151 41.933,286.121 42.326 M318.724 42.242 C 318.786 42.403,318.736 42.452,318.575 42.390 C 318.442 42.339,318.333 42.393,318.333 42.510 C 318.333 42.627,318.294 42.683,318.246 42.635 C 318.128 42.517,318.335 42.000,318.500 42.000 C 318.572 42.000,318.673 42.109,318.724 42.242 M147.917 42.333 C 147.860 42.425,147.448 42.500,147.000 42.500 C 146.552 42.500,146.140 42.425,146.083 42.333 C 146.019 42.229,146.363 42.167,147.000 42.167 C 147.637 42.167,147.981 42.229,147.917 42.333 M178.500 42.333 C 178.173 42.545,177.547 42.545,177.417 42.333 C 177.354 42.232,177.595 42.168,178.032 42.169 C 178.557 42.171,178.683 42.215,178.500 42.333 M237.167 42.333 C 236.837 42.546,235.548 42.546,235.417 42.333 C 235.352 42.229,235.706 42.168,236.365 42.169 C 237.106 42.171,237.343 42.220,237.167 42.333 M288.500 42.333 C 288.500 42.425,288.204 42.500,287.843 42.500 C 287.482 42.500,287.140 42.425,287.083 42.333 C 287.020 42.232,287.276 42.167,287.740 42.167 C 288.158 42.167,288.500 42.242,288.500 42.333 M306.549 42.351 C 306.418 42.482,306.278 42.484,306.058 42.356 C 305.788 42.199,305.811 42.176,306.242 42.172 C 306.600 42.168,306.684 42.216,306.549 42.351 M338.750 42.333 C 338.693 42.425,338.431 42.500,338.167 42.500 C 337.902 42.500,337.640 42.425,337.583 42.333 C 337.521 42.233,337.752 42.167,338.167 42.167 C 338.582 42.167,338.812 42.233,338.750 42.333 M175.310 42.778 C 175.209 42.900,175.004 42.991,174.855 42.981 C 174.628 42.965,174.631 42.949,174.877 42.885 C 175.039 42.843,175.136 42.751,175.093 42.682 C 175.050 42.612,175.123 42.556,175.255 42.556 C 175.436 42.556,175.449 42.610,175.310 42.778 M257.418 43.166 C 257.578 43.033,257.671 43.038,257.761 43.184 C 257.836 43.306,257.815 43.341,257.707 43.275 C 257.609 43.214,257.499 43.253,257.463 43.362 C 257.382 43.604,256.995 43.391,257.013 43.115 C 257.022 42.979,257.053 42.984,257.113 43.132 C 257.176 43.290,257.257 43.299,257.418 43.166 M185.489 44.917 C 185.489 45.008,185.391 44.953,185.270 44.794 C 185.149 44.635,185.007 44.549,184.953 44.602 C 184.900 44.656,184.900 44.533,184.953 44.329 L 185.050 43.959 185.269 44.354 C 185.390 44.572,185.488 44.825,185.489 44.917 M315.500 45.500 C 315.393 45.699,315.269 45.824,315.223 45.779 C 315.177 45.733,315.227 45.532,315.333 45.333 C 315.440 45.134,315.565 45.009,315.610 45.055 C 315.656 45.101,315.607 45.301,315.500 45.500 M232.208 69.042 C 232.231 75.069,232.194 80.000,232.125 80.000 C 232.056 80.000,232.018 72.294,232.040 62.875 C 232.061 53.456,232.099 48.525,232.123 51.917 C 232.147 55.308,232.185 63.015,232.208 69.042 M152.461 46.531 C 152.735 47.259,152.621 47.291,152.283 46.581 C 152.130 46.262,152.063 46.000,152.133 46.000 C 152.203 46.000,152.350 46.239,152.461 46.531 M195.535 46.446 C 195.377 46.509,195.368 46.591,195.501 46.751 C 195.633 46.911,195.628 47.004,195.482 47.094 C 195.361 47.169,195.325 47.148,195.392 47.040 C 195.453 46.942,195.413 46.832,195.305 46.796 C 195.063 46.715,195.276 46.328,195.552 46.346 C 195.688 46.356,195.682 46.387,195.535 46.446 M322.826 47.514 C 322.723 47.705,322.606 47.829,322.566 47.788 C 322.449 47.671,322.686 47.167,322.857 47.167 C 322.942 47.167,322.928 47.323,322.826 47.514 M265.460 49.781 C 265.301 49.823,265.001 49.824,264.794 49.785 C 264.586 49.745,264.717 49.711,265.083 49.709 C 265.450 49.707,265.620 49.739,265.460 49.781 M331.500 49.990 C 331.500 50.076,331.424 50.194,331.331 50.252 C 331.237 50.309,331.204 50.425,331.256 50.510 C 331.308 50.594,331.226 50.615,331.074 50.557 C 330.819 50.459,330.819 50.438,331.085 50.289 C 331.320 50.157,331.331 50.101,331.145 49.983 C 330.965 49.869,330.979 49.838,331.208 49.836 C 331.369 49.834,331.500 49.904,331.500 49.990 M261.499 50.125 C 261.498 50.194,261.310 50.337,261.082 50.443 C 260.854 50.549,260.667 50.579,260.667 50.510 C 260.667 50.441,260.835 50.303,261.042 50.203 C 261.517 49.974,261.500 49.977,261.499 50.125 M268.250 50.605 C 268.525 50.753,269.184 51.048,269.715 51.261 C 271.157 51.838,272.765 53.060,273.472 54.116 C 274.442 55.565,275.315 57.217,275.324 57.625 L 275.333 58.000 265.186 58.000 L 255.038 58.000 254.966 57.510 C 254.926 57.236,254.967 57.034,255.061 57.052 C 255.153 57.069,255.635 56.271,256.132 55.278 C 257.128 53.290,257.900 52.543,259.963 51.570 C 260.488 51.323,261.288 50.944,261.741 50.727 C 262.809 50.217,267.372 50.131,268.250 50.605 M179.591 51.318 C 179.225 52.026,179.106 51.971,179.449 51.252 C 179.602 50.932,179.756 50.700,179.792 50.737 C 179.828 50.773,179.738 51.034,179.591 51.318 M197.167 51.333 C 197.354 51.700,197.469 52.000,197.423 52.000 C 197.378 52.000,197.187 51.700,197.000 51.333 C 196.813 50.967,196.697 50.667,196.743 50.667 C 196.789 50.667,196.980 50.967,197.167 51.333 M246.757 53.808 C 246.494 54.066,246.490 54.053,246.690 53.606 C 246.808 53.344,246.934 53.220,246.971 53.331 C 247.008 53.442,246.912 53.657,246.757 53.808 M351.542 53.777 C 351.278 53.883,351.267 54.500,351.528 54.500 C 351.635 54.500,351.683 54.539,351.635 54.587 C 351.459 54.763,351.000 54.456,351.000 54.163 C 351.000 53.874,351.225 53.693,351.583 53.693 C 351.675 53.693,351.656 53.731,351.542 53.777 M178.472 54.351 C 178.374 54.411,178.235 54.556,178.163 54.673 C 178.081 54.806,178.042 54.726,178.058 54.458 C 178.072 54.224,178.140 54.067,178.208 54.109 C 178.277 54.152,178.334 54.088,178.336 53.968 C 178.338 53.807,178.379 53.815,178.494 53.996 C 178.593 54.153,178.585 54.281,178.472 54.351 M198.833 54.544 C 199.039 54.487,199.042 54.503,198.854 54.635 C 198.727 54.724,198.675 54.879,198.738 54.981 C 198.801 55.083,198.813 55.167,198.764 55.167 C 198.629 55.167,198.165 54.213,198.180 53.967 C 198.188 53.847,198.281 53.944,198.389 54.182 C 198.504 54.438,198.685 54.585,198.833 54.544 M146.646 54.317 C 146.900 54.478,146.762 54.835,146.448 54.831 C 146.317 54.829,146.327 54.779,146.478 54.684 C 146.663 54.567,146.647 54.504,146.395 54.358 C 146.224 54.258,146.158 54.176,146.250 54.174 C 146.342 54.173,146.520 54.237,146.646 54.317 M189.917 55.500 C 190.059 55.775,190.100 56.000,190.007 56.000 C 189.915 56.000,189.793 55.813,189.735 55.584 C 189.677 55.354,189.554 55.217,189.456 55.277 C 189.355 55.340,189.331 55.305,189.401 55.192 C 189.574 54.912,189.630 54.946,189.917 55.500 M120.285 56.206 C 120.245 56.414,120.211 56.283,120.209 55.917 C 120.207 55.550,120.239 55.380,120.281 55.540 C 120.323 55.699,120.324 55.999,120.285 56.206 M147.655 56.417 C 147.656 56.508,147.546 56.438,147.411 56.260 C 147.277 56.082,147.169 55.819,147.173 55.676 C 147.179 55.394,147.654 56.122,147.655 56.417 M275.789 56.982 C 275.773 57.188,275.679 57.264,275.516 57.201 C 275.346 57.136,275.331 57.084,275.468 57.039 C 275.578 57.002,275.626 56.903,275.575 56.819 C 275.523 56.735,275.555 56.667,275.646 56.667 C 275.738 56.667,275.802 56.808,275.789 56.982 M210.095 57.320 C 210.095 57.576,210.035 57.608,209.798 57.481 C 209.634 57.393,209.500 57.282,209.500 57.234 C 209.500 57.186,209.575 57.193,209.667 57.250 C 209.758 57.307,209.833 57.274,209.833 57.177 C 209.833 57.079,209.892 57.000,209.964 57.000 C 210.036 57.000,210.095 57.144,210.095 57.320 M318.569 57.749 C 318.419 57.977,318.335 58.265,318.382 58.388 C 318.430 58.511,318.363 58.611,318.234 58.611 C 318.105 58.611,318.000 58.567,318.001 58.514 C 318.002 58.358,318.653 57.333,318.751 57.333 C 318.801 57.333,318.719 57.520,318.569 57.749 M120.250 58.389 C 120.348 58.473,120.297 58.493,120.125 58.438 C 119.928 58.374,119.833 58.432,119.833 58.616 C 119.833 58.766,119.789 58.845,119.735 58.790 C 119.681 58.736,119.687 58.530,119.750 58.333 C 119.813 58.136,119.913 58.036,119.974 58.111 C 120.034 58.185,120.158 58.310,120.250 58.389 M276.000 58.482 C 276.000 58.718,275.523 58.838,275.396 58.634 C 275.327 58.522,275.358 58.495,275.474 58.567 C 275.580 58.633,275.667 58.607,275.667 58.510 C 275.667 58.413,275.742 58.333,275.833 58.333 C 275.925 58.333,276.000 58.400,276.000 58.482 M298.639 58.680 C 298.812 58.688,298.838 58.725,298.708 58.777 C 298.594 58.823,298.500 58.928,298.500 59.009 C 298.500 59.090,298.594 59.133,298.708 59.105 C 298.823 59.077,298.860 59.086,298.791 59.125 C 298.721 59.164,298.707 59.264,298.759 59.348 C 298.811 59.431,298.779 59.500,298.688 59.500 C 298.597 59.500,298.475 59.349,298.416 59.164 C 298.357 58.980,298.247 58.867,298.170 58.914 C 298.094 58.962,298.075 58.834,298.128 58.630 C 298.181 58.426,298.256 58.350,298.293 58.463 C 298.331 58.575,298.486 58.673,298.639 58.680 M270.458 59.125 C 267.548 59.150,262.785 59.150,259.875 59.125 C 256.965 59.099,259.346 59.078,265.167 59.078 C 270.987 59.078,273.369 59.099,270.458 59.125 M285.275 59.715 C 285.230 59.826,285.187 59.781,285.180 59.615 C 285.173 59.449,285.093 59.359,285.002 59.415 C 284.905 59.475,284.881 59.403,284.943 59.240 C 285.042 58.984,285.061 58.984,285.203 59.238 C 285.288 59.389,285.320 59.603,285.275 59.715 M116.724 59.958 C 116.795 60.072,109.798 60.070,100.750 59.954 C 98.825 59.930,101.614 59.892,106.948 59.872 C 112.283 59.851,116.682 59.890,116.724 59.958 M96.958 75.208 C 96.933 77.981,96.912 75.712,96.912 70.167 C 96.912 64.621,96.933 62.352,96.958 65.125 C 96.984 67.898,96.984 72.435,96.958 75.208 M217.790 60.681 C 217.629 60.774,217.347 61.147,217.162 61.509 C 216.978 61.871,216.789 62.167,216.743 62.167 C 216.610 62.167,217.359 60.763,217.564 60.628 C 217.666 60.560,217.825 60.506,217.917 60.508 C 218.008 60.509,217.952 60.587,217.790 60.681 M149.831 61.298 C 149.833 61.473,149.791 61.473,149.604 61.299 C 149.478 61.181,149.414 60.985,149.461 60.862 C 149.561 60.602,149.826 60.915,149.831 61.298 M347.396 62.800 C 347.441 62.873,347.401 63.042,347.307 63.175 C 347.165 63.375,347.151 63.368,347.225 63.135 C 347.281 62.959,347.209 62.826,347.032 62.780 C 346.768 62.710,346.768 62.704,347.032 62.686 C 347.187 62.675,347.351 62.726,347.396 62.800 M325.384 64.607 C 325.275 64.652,325.227 64.796,325.277 64.927 C 325.328 65.059,325.293 65.167,325.199 65.167 C 325.064 65.167,325.045 64.899,325.154 64.542 C 325.161 64.519,325.260 64.506,325.375 64.513 C 325.530 64.523,325.532 64.547,325.384 64.607 M282.000 66.333 C 281.843 66.435,276.779 66.481,268.333 66.457 L 254.917 66.420 268.417 66.333 C 275.842 66.286,281.992 66.230,282.083 66.209 C 282.175 66.189,282.137 66.244,282.000 66.333 M374.201 67.113 C 374.043 67.176,374.034 67.257,374.168 67.418 C 374.300 67.578,374.295 67.671,374.149 67.761 C 374.028 67.836,373.992 67.815,374.059 67.707 C 374.119 67.609,374.080 67.499,373.972 67.463 C 373.730 67.382,373.942 66.995,374.218 67.013 C 374.354 67.022,374.349 67.053,374.201 67.113 M302.068 67.583 C 302.218 67.813,302.276 68.000,302.197 68.000 C 302.118 68.000,301.968 67.813,301.864 67.583 C 301.759 67.354,301.701 67.167,301.734 67.167 C 301.768 67.167,301.918 67.354,302.068 67.583 M305.230 67.759 C 305.285 67.901,305.266 67.978,305.189 67.931 C 305.112 67.883,304.960 68.039,304.851 68.277 C 304.743 68.515,304.614 68.670,304.565 68.620 C 304.479 68.534,304.945 67.500,305.070 67.500 C 305.103 67.500,305.176 67.616,305.230 67.759 M374.453 71.458 C 374.415 71.710,374.383 71.504,374.383 71.000 C 374.383 70.496,374.415 70.290,374.453 70.542 C 374.491 70.794,374.491 71.206,374.453 71.458 M171.506 71.576 C 171.395 71.710,171.360 71.916,171.427 72.034 C 171.517 72.193,171.497 72.202,171.352 72.070 C 171.135 71.870,171.271 71.333,171.538 71.333 C 171.638 71.333,171.625 71.433,171.506 71.576 M212.254 73.154 C 212.194 73.344,212.076 73.500,211.992 73.500 C 211.909 73.500,211.926 73.312,212.031 73.083 C 212.252 72.596,212.415 72.648,212.254 73.154 M258.167 73.359 C 258.167 73.437,258.017 73.350,257.833 73.167 C 257.650 72.983,257.500 72.784,257.500 72.724 C 257.500 72.664,257.650 72.751,257.833 72.917 C 258.017 73.083,258.167 73.282,258.167 73.359 M155.146 73.817 C 155.400 73.978,155.262 74.335,154.948 74.331 C 154.817 74.329,154.827 74.279,154.978 74.184 C 155.163 74.067,155.147 74.004,154.895 73.858 C 154.724 73.758,154.658 73.676,154.750 73.674 C 154.842 73.673,155.020 73.737,155.146 73.817 M140.224 74.875 C 140.182 74.944,140.006 75.000,139.833 75.000 C 139.661 75.000,139.485 74.944,139.442 74.875 C 139.400 74.806,139.576 74.750,139.833 74.750 C 140.091 74.750,140.267 74.806,140.224 74.875 M198.167 75.375 C 198.167 75.455,198.092 75.473,198.000 75.417 C 197.908 75.360,197.833 75.201,197.833 75.064 C 197.833 74.917,197.754 74.863,197.641 74.933 C 197.514 75.011,197.494 74.978,197.583 74.834 C 197.719 74.613,198.167 75.028,198.167 75.375 M358.792 76.286 C 358.540 76.324,358.127 76.324,357.875 76.286 C 357.623 76.248,357.829 76.217,358.333 76.217 C 358.837 76.217,359.044 76.248,358.792 76.286 M199.276 77.816 L 199.303 78.244 199.101 77.867 C 198.990 77.659,198.835 77.548,198.756 77.620 C 198.678 77.691,198.659 77.669,198.716 77.569 C 198.906 77.235,199.250 77.386,199.276 77.816 M157.313 78.817 C 157.566 78.978,157.429 79.335,157.115 79.331 C 156.984 79.329,156.994 79.279,157.145 79.184 C 157.329 79.067,157.313 79.004,157.062 78.858 C 156.890 78.758,156.825 78.676,156.917 78.674 C 157.008 78.673,157.187 78.737,157.313 78.817 M327.906 79.304 C 327.762 79.593,327.698 79.924,327.763 80.040 C 327.858 80.207,327.837 80.208,327.659 80.043 C 327.474 79.871,327.485 79.735,327.725 79.231 C 327.884 78.898,328.049 78.660,328.091 78.702 C 328.134 78.745,328.050 79.015,327.906 79.304 M209.444 80.406 C 209.393 80.537,209.442 80.680,209.551 80.722 C 209.660 80.765,209.587 80.791,209.388 80.782 C 209.092 80.768,209.055 80.709,209.185 80.465 C 209.376 80.110,209.575 80.064,209.444 80.406 M345.997 80.729 C 345.996 80.839,345.935 80.823,345.851 80.689 C 345.729 80.498,345.694 80.498,345.620 80.689 C 345.573 80.814,345.542 80.752,345.552 80.550 C 345.571 80.163,346.003 80.336,345.997 80.729 M318.831 80.958 C 318.836 81.372,318.583 81.155,318.558 80.724 C 318.539 80.408,318.574 80.349,318.680 80.516 C 318.762 80.645,318.829 80.844,318.831 80.958 M255.855 81.444 C 256.062 81.695,256.048 81.703,255.708 81.521 C 255.417 81.366,255.333 81.366,255.333 81.522 C 255.333 81.632,255.288 81.677,255.233 81.622 C 255.112 81.501,255.300 81.167,255.489 81.167 C 255.564 81.167,255.729 81.291,255.855 81.444 M133.075 82.193 C 133.309 82.300,133.500 82.459,133.500 82.547 C 133.500 82.635,133.392 82.618,133.261 82.509 C 133.129 82.400,132.810 82.247,132.552 82.169 C 132.294 82.092,132.211 82.022,132.367 82.014 C 132.523 82.006,132.842 82.087,133.075 82.193 M303.542 83.118 C 303.335 83.157,302.998 83.157,302.792 83.118 C 302.585 83.078,302.754 83.045,303.167 83.045 C 303.579 83.045,303.748 83.078,303.542 83.118 M266.833 83.824 C 267.108 83.905,266.852 83.947,266.083 83.946 C 265.191 83.944,265.054 83.916,265.500 83.827 C 266.254 83.676,266.337 83.676,266.833 83.824 M357.917 83.814 C 358.192 83.873,357.577 83.921,356.550 83.919 C 355.524 83.918,354.811 83.866,354.967 83.803 C 355.320 83.662,357.245 83.669,357.917 83.814 M148.669 94.625 L 148.589 95.750 148.535 94.853 C 148.488 94.066,148.558 93.501,148.703 93.500 C 148.729 93.499,148.714 94.006,148.669 94.625 " stroke="none" fill="#2394f4" fill-rule="evenodd"></path><path id="path1" d="M30.333 18.015 C 29.738 18.091,28.800 18.338,28.250 18.563 C 27.700 18.788,26.650 19.056,25.917 19.158 C 25.081 19.274,24.241 19.519,23.667 19.814 C 23.162 20.072,22.387 20.373,21.943 20.482 C 19.699 21.031,15.005 23.693,12.833 25.647 C 12.054 26.348,10.779 27.459,10.000 28.115 C 9.221 28.772,8.455 29.461,8.299 29.647 C 8.143 29.834,7.663 30.421,7.232 30.951 C 6.801 31.482,5.970 32.453,5.385 33.109 C 4.359 34.259,2.400 37.507,1.906 38.878 C 1.781 39.223,1.490 39.753,1.259 40.057 C 1.028 40.360,0.650 41.186,0.419 41.892 L 0.000 43.177 -0.000 56.829 C -0.000 64.374,0.065 70.520,0.145 70.570 C 0.224 70.619,0.339 70.969,0.400 71.348 C 0.502 71.990,0.716 72.510,1.384 73.750 C 1.532 74.025,1.923 74.833,2.251 75.545 C 2.580 76.257,3.070 77.092,3.342 77.401 C 3.613 77.709,3.952 78.243,4.096 78.588 C 4.363 79.227,5.619 81.038,5.866 81.139 C 5.941 81.170,6.358 81.658,6.792 82.223 C 7.871 83.626,9.072 84.895,10.167 85.788 C 10.671 86.199,11.523 86.921,12.061 87.393 C 13.338 88.513,14.551 89.387,15.583 89.932 C 16.042 90.173,16.529 90.469,16.667 90.588 C 17.361 91.189,21.931 93.442,22.752 93.588 C 23.117 93.653,23.804 93.924,24.278 94.191 C 24.891 94.536,25.538 94.726,26.528 94.852 C 27.292 94.949,28.666 95.265,29.582 95.556 L 31.247 96.083 36.832 96.083 C 42.270 96.082,42.443 96.072,43.417 95.696 C 44.728 95.190,45.301 95.053,46.989 94.844 C 47.996 94.720,48.571 94.553,49.017 94.259 C 49.359 94.032,50.151 93.729,50.778 93.584 C 51.404 93.439,52.367 93.089,52.917 92.805 C 55.083 91.687,56.428 90.950,56.667 90.749 C 56.804 90.633,57.292 90.350,57.750 90.120 C 58.208 89.891,58.733 89.537,58.916 89.334 C 59.099 89.132,59.474 88.850,59.750 88.708 C 61.575 87.767,66.697 82.957,67.918 81.038 C 68.601 79.966,69.767 78.277,70.662 77.067 C 70.939 76.691,71.167 76.312,71.167 76.225 C 71.167 76.137,71.376 75.732,71.633 75.324 C 71.889 74.917,72.201 74.321,72.326 74.000 C 72.452 73.679,72.758 72.967,73.008 72.417 C 73.257 71.867,73.516 71.079,73.581 70.667 C 73.647 70.254,73.913 69.568,74.173 69.141 C 74.625 68.396,75.000 66.959,75.000 65.968 C 75.000 65.708,75.139 65.178,75.310 64.790 C 75.480 64.401,75.709 63.865,75.818 63.599 C 76.581 61.738,76.367 52.057,75.517 49.932 C 75.233 49.222,75.000 48.361,75.000 48.018 C 75.000 46.855,74.649 45.420,74.175 44.642 C 73.915 44.216,73.647 43.541,73.580 43.142 C 73.513 42.743,73.243 41.959,72.979 41.401 C 72.716 40.842,72.500 40.313,72.500 40.225 C 72.500 40.137,72.289 39.732,72.031 39.324 C 71.772 38.917,71.474 38.334,71.368 38.030 C 71.180 37.489,70.749 36.768,69.114 34.262 C 66.709 30.576,59.854 24.325,56.083 22.380 C 54.458 21.542,52.127 20.540,51.502 20.410 C 51.183 20.344,50.508 20.075,50.002 19.813 C 49.431 19.516,48.581 19.263,47.754 19.142 C 47.023 19.035,46.033 18.775,45.555 18.564 C 44.014 17.882,34.138 17.526,30.333 18.015 M132.455 27.287 C 132.750 27.324,133.275 27.324,133.621 27.288 C 133.967 27.252,133.725 27.222,133.083 27.221 C 132.442 27.221,132.159 27.250,132.455 27.287 M235.708 27.288 C 236.052 27.324,236.615 27.324,236.958 27.288 C 237.302 27.252,237.021 27.223,236.333 27.223 C 235.646 27.223,235.365 27.252,235.708 27.288 M264.455 41.454 C 264.750 41.490,265.275 41.491,265.621 41.455 C 265.967 41.419,265.725 41.389,265.083 41.388 C 264.442 41.387,264.159 41.417,264.455 41.454 M357.788 41.454 C 358.084 41.490,358.609 41.491,358.955 41.455 C 359.300 41.419,359.058 41.389,358.417 41.388 C 357.775 41.387,357.492 41.417,357.788 41.454 M30.167 44.750 C 30.604 45.071,31.016 45.333,31.083 45.333 C 31.150 45.333,31.563 45.596,32.000 45.917 C 32.437 46.237,32.860 46.500,32.939 46.501 C 33.018 46.501,33.421 46.730,33.833 47.010 C 34.246 47.290,35.183 47.824,35.917 48.197 C 36.650 48.570,37.512 49.082,37.833 49.334 C 38.154 49.587,38.686 49.933,39.016 50.105 C 39.952 50.592,41.262 51.356,42.373 52.065 C 42.932 52.421,43.883 52.968,44.486 53.281 C 45.090 53.594,45.830 54.014,46.131 54.216 C 46.433 54.418,47.350 55.019,48.169 55.550 C 49.874 56.658,50.003 56.802,49.567 57.103 C 49.393 57.223,49.167 57.393,49.065 57.479 C 48.963 57.565,48.588 57.785,48.232 57.968 C 47.875 58.151,47.292 58.533,46.935 58.817 C 46.579 59.101,46.198 59.333,46.088 59.333 C 45.978 59.333,45.469 59.633,44.957 60.000 C 44.445 60.367,43.975 60.667,43.913 60.667 C 43.851 60.667,43.119 61.088,42.286 61.603 C 41.453 62.119,40.542 62.672,40.261 62.834 C 39.105 63.498,37.773 64.336,37.520 64.559 C 37.371 64.689,36.800 65.030,36.250 65.315 C 35.700 65.601,34.387 66.369,33.333 67.023 C 32.279 67.677,31.011 68.426,30.516 68.687 C 30.020 68.948,29.489 69.276,29.336 69.414 C 29.183 69.553,29.007 69.667,28.945 69.667 C 28.884 69.667,28.833 63.929,28.833 56.917 C 28.833 42.539,28.708 43.680,30.167 44.750 M261.637 66.958 C 265.242 66.983,271.092 66.983,274.637 66.958 C 278.183 66.933,275.233 66.913,268.083 66.913 C 260.933 66.913,258.033 66.933,261.637 66.958 " stroke="none" fill="#040404" fill-rule="evenodd"></path><path id="path2" d="M132.347 27.727 C 132.385 27.760,132.829 27.833,133.333 27.889 C 133.946 27.957,134.167 27.938,134.000 27.832 C 133.773 27.687,132.184 27.586,132.347 27.727 M235.391 27.794 C 235.285 27.862,235.709 27.917,236.333 27.917 C 236.957 27.917,237.382 27.862,237.276 27.794 C 237.170 27.727,236.746 27.672,236.333 27.672 C 235.921 27.672,235.497 27.727,235.391 27.794 M99.387 28.958 C 103.313 28.983,109.688 28.983,113.554 28.958 C 117.420 28.933,114.208 28.913,106.417 28.913 C 98.625 28.913,95.462 28.933,99.387 28.958 M228.778 30.444 C 228.609 30.613,228.645 30.866,228.822 30.757 C 228.907 30.704,229.021 30.732,229.075 30.819 C 229.128 30.906,229.096 31.024,229.003 31.082 C 228.910 31.139,228.836 31.276,228.838 31.385 C 228.841 31.494,228.921 31.451,229.015 31.288 C 229.110 31.125,229.276 31.045,229.385 31.108 C 229.494 31.172,229.434 31.042,229.252 30.820 C 229.069 30.598,228.913 30.398,228.905 30.375 C 228.896 30.352,228.839 30.383,228.778 30.444 M137.000 30.649 C 137.000 30.857,137.470 31.016,137.577 30.844 C 137.625 30.765,137.547 30.656,137.402 30.601 C 137.053 30.467,137.000 30.473,137.000 30.649 M137.247 51.750 C 137.247 62.933,137.267 67.484,137.292 61.862 C 137.316 56.240,137.316 47.090,137.292 41.529 C 137.267 35.967,137.247 40.567,137.247 51.750 M232.063 33.500 C 232.063 34.554,232.090 34.985,232.123 34.458 C 232.156 33.931,232.156 33.069,232.123 32.542 C 232.090 32.015,232.063 32.446,232.063 33.500 M96.795 44.323 C 96.770 48.286,96.781 51.559,96.819 51.597 C 96.858 51.635,101.358 51.661,106.819 51.655 C 112.516 51.648,116.608 51.582,116.417 51.500 C 116.233 51.421,111.788 51.351,106.538 51.345 L 96.993 51.333 97.004 44.312 C 97.009 40.451,96.975 37.253,96.927 37.205 C 96.879 37.157,96.820 40.360,96.795 44.323 M182.447 38.344 C 182.587 38.624,182.734 38.822,182.774 38.782 C 182.877 38.679,182.472 37.833,182.319 37.833 C 182.249 37.833,182.307 38.063,182.447 38.344 M238.442 38.638 C 238.291 38.806,238.169 39.012,238.172 39.096 C 238.175 39.181,238.254 39.117,238.349 38.955 C 238.443 38.792,238.602 38.710,238.703 38.772 C 238.820 38.845,238.836 38.807,238.748 38.664 C 238.649 38.502,238.689 38.473,238.898 38.553 C 239.068 38.618,239.143 38.596,239.082 38.498 C 238.933 38.256,238.753 38.295,238.442 38.638 M235.167 38.792 C 235.167 38.860,235.654 38.917,236.250 38.917 C 236.846 38.917,237.333 38.860,237.333 38.792 C 237.333 38.723,236.846 38.667,236.250 38.667 C 235.654 38.667,235.167 38.723,235.167 38.792 M183.223 40.406 C 183.273 40.537,183.263 40.675,183.199 40.712 C 183.135 40.749,183.170 40.758,183.276 40.734 C 183.383 40.709,183.523 40.890,183.589 41.136 C 183.654 41.382,183.741 41.495,183.781 41.386 C 183.857 41.181,183.397 40.167,183.228 40.167 C 183.175 40.167,183.172 40.274,183.223 40.406 M261.757 41.822 C 261.646 42.001,261.972 42.250,262.122 42.100 C 262.177 42.045,262.116 41.995,261.986 41.988 C 261.847 41.981,261.886 41.918,262.083 41.833 C 262.355 41.717,262.365 41.688,262.135 41.678 C 261.980 41.672,261.810 41.736,261.757 41.822 M355.528 41.813 C 355.351 41.924,355.365 41.977,355.593 42.064 C 355.752 42.125,355.920 42.135,355.968 42.087 C 356.016 42.039,355.949 41.993,355.819 41.983 C 355.690 41.974,355.771 41.907,356.000 41.833 C 356.343 41.723,356.358 41.697,356.083 41.686 C 355.900 41.678,355.650 41.735,355.528 41.813 M263.250 42.000 C 263.040 42.090,263.009 42.143,263.167 42.143 C 263.304 42.143,263.567 42.079,263.750 42.000 C 263.960 41.910,263.991 41.857,263.833 41.857 C 263.696 41.857,263.433 41.921,263.250 42.000 M266.500 42.000 C 267.070 42.183,267.508 42.183,267.083 42.000 C 266.900 41.921,266.600 41.859,266.417 41.862 C 266.149 41.866,266.165 41.893,266.500 42.000 M356.917 42.000 C 356.707 42.090,356.676 42.143,356.833 42.143 C 356.971 42.143,357.233 42.079,357.417 42.000 C 357.627 41.910,357.658 41.857,357.500 41.857 C 357.363 41.857,357.100 41.921,356.917 42.000 M359.833 42.000 C 360.403 42.183,360.841 42.183,360.417 42.000 C 360.233 41.921,359.933 41.859,359.750 41.862 C 359.482 41.866,359.498 41.893,359.833 42.000 M179.276 42.242 C 179.212 42.410,179.269 42.456,179.467 42.395 C 179.697 42.323,179.690 42.355,179.426 42.570 C 179.249 42.715,179.188 42.833,179.292 42.833 C 179.395 42.833,179.527 42.757,179.585 42.664 C 179.643 42.571,179.765 42.541,179.857 42.598 C 179.949 42.655,179.926 42.544,179.806 42.351 C 179.548 41.939,179.404 41.909,179.276 42.242 M237.776 42.242 C 237.714 42.403,237.764 42.452,237.925 42.390 C 238.058 42.339,238.167 42.374,238.167 42.468 C 238.167 42.562,238.073 42.677,237.958 42.723 C 237.808 42.784,237.805 42.811,237.948 42.820 C 238.223 42.838,238.354 42.582,238.233 42.265 C 238.106 41.935,237.898 41.924,237.776 42.242 M285.936 42.261 C 285.880 42.406,285.750 42.468,285.642 42.401 C 285.513 42.322,285.494 42.355,285.585 42.503 C 285.687 42.669,285.642 42.693,285.402 42.602 C 285.152 42.507,285.127 42.524,285.285 42.683 C 285.437 42.836,285.542 42.839,285.717 42.694 C 285.844 42.589,285.981 42.537,286.022 42.578 C 286.063 42.619,286.108 42.506,286.121 42.326 C 286.151 41.933,286.072 41.905,285.936 42.261 M318.264 42.274 C 318.206 42.424,318.198 42.587,318.246 42.635 C 318.294 42.683,318.333 42.627,318.333 42.510 C 318.333 42.393,318.442 42.339,318.575 42.390 C 318.736 42.452,318.786 42.403,318.724 42.242 C 318.601 41.921,318.394 41.935,318.264 42.274 M146.083 42.333 C 146.140 42.425,146.552 42.500,147.000 42.500 C 147.448 42.500,147.860 42.425,147.917 42.333 C 147.981 42.229,147.637 42.167,147.000 42.167 C 146.363 42.167,146.019 42.229,146.083 42.333 M177.417 42.333 C 177.547 42.545,178.173 42.545,178.500 42.333 C 178.683 42.215,178.557 42.171,178.032 42.169 C 177.595 42.168,177.354 42.232,177.417 42.333 M235.417 42.333 C 235.548 42.546,236.837 42.546,237.167 42.333 C 237.343 42.220,237.106 42.171,236.365 42.169 C 235.706 42.168,235.352 42.229,235.417 42.333 M287.083 42.333 C 287.140 42.425,287.482 42.500,287.843 42.500 C 288.204 42.500,288.500 42.425,288.500 42.333 C 288.500 42.242,288.158 42.167,287.740 42.167 C 287.276 42.167,287.020 42.232,287.083 42.333 M306.058 42.356 C 306.278 42.484,306.418 42.482,306.549 42.351 C 306.684 42.216,306.600 42.168,306.242 42.172 C 305.811 42.176,305.788 42.199,306.058 42.356 M337.583 42.333 C 337.640 42.425,337.902 42.500,338.167 42.500 C 338.431 42.500,338.693 42.425,338.750 42.333 C 338.812 42.233,338.582 42.167,338.167 42.167 C 337.752 42.167,337.521 42.233,337.583 42.333 M175.093 42.682 C 175.136 42.751,175.039 42.843,174.877 42.885 C 174.631 42.949,174.628 42.965,174.855 42.981 C 175.004 42.991,175.209 42.900,175.310 42.778 C 175.449 42.610,175.436 42.556,175.255 42.556 C 175.123 42.556,175.050 42.612,175.093 42.682 M257.013 43.115 C 256.995 43.391,257.382 43.604,257.463 43.362 C 257.499 43.253,257.609 43.214,257.707 43.275 C 257.815 43.341,257.836 43.306,257.761 43.184 C 257.671 43.038,257.578 43.033,257.418 43.166 C 257.257 43.299,257.176 43.290,257.113 43.132 C 257.053 42.984,257.022 42.979,257.013 43.115 M184.953 44.329 C 184.900 44.533,184.900 44.656,184.953 44.602 C 185.007 44.549,185.149 44.635,185.270 44.794 C 185.554 45.168,185.553 44.867,185.269 44.354 L 185.050 43.959 184.953 44.329 M315.333 45.333 C 315.227 45.532,315.177 45.733,315.223 45.779 C 315.269 45.824,315.393 45.699,315.500 45.500 C 315.607 45.301,315.656 45.101,315.610 45.055 C 315.565 45.009,315.440 45.134,315.333 45.333 M232.040 62.875 C 232.018 72.294,232.056 80.000,232.125 80.000 C 232.238 80.000,232.237 68.133,232.123 51.917 C 232.099 48.525,232.061 53.456,232.040 62.875 M152.283 46.581 C 152.435 46.901,152.582 47.140,152.610 47.112 C 152.702 47.021,152.263 46.000,152.133 46.000 C 152.063 46.000,152.130 46.262,152.283 46.581 M195.230 46.532 C 195.163 46.641,195.196 46.760,195.305 46.796 C 195.413 46.832,195.453 46.942,195.392 47.040 C 195.325 47.148,195.361 47.169,195.482 47.094 C 195.628 47.004,195.633 46.911,195.501 46.751 C 195.368 46.591,195.377 46.509,195.535 46.446 C 195.682 46.387,195.688 46.356,195.552 46.346 C 195.442 46.339,195.298 46.423,195.230 46.532 M322.597 47.441 C 322.438 47.854,322.613 47.911,322.826 47.514 C 322.928 47.323,322.942 47.167,322.857 47.167 C 322.772 47.167,322.655 47.290,322.597 47.441 M264.794 49.785 C 265.001 49.824,265.301 49.823,265.460 49.781 C 265.620 49.739,265.450 49.707,265.083 49.709 C 264.717 49.711,264.586 49.745,264.794 49.785 M331.145 49.983 C 331.331 50.101,331.320 50.157,331.085 50.289 C 330.819 50.438,330.819 50.459,331.074 50.557 C 331.226 50.615,331.308 50.594,331.256 50.510 C 331.204 50.425,331.237 50.309,331.331 50.252 C 331.601 50.085,331.527 49.833,331.208 49.836 C 330.979 49.838,330.965 49.869,331.145 49.983 M261.042 50.203 C 260.835 50.303,260.667 50.441,260.667 50.510 C 260.667 50.579,260.854 50.549,261.082 50.443 C 261.310 50.337,261.498 50.194,261.499 50.125 C 261.500 49.977,261.517 49.974,261.042 50.203 M179.449 51.252 C 179.297 51.572,179.206 51.833,179.248 51.833 C 179.362 51.833,179.868 50.813,179.792 50.737 C 179.756 50.700,179.602 50.932,179.449 51.252 M197.000 51.333 C 197.187 51.700,197.378 52.000,197.423 52.000 C 197.469 52.000,197.354 51.700,197.167 51.333 C 196.980 50.967,196.789 50.667,196.743 50.667 C 196.697 50.667,196.813 50.967,197.000 51.333 M246.690 53.606 C 246.490 54.053,246.494 54.066,246.757 53.808 C 246.912 53.657,247.008 53.442,246.971 53.331 C 246.934 53.220,246.808 53.344,246.690 53.606 M351.208 53.777 C 350.907 53.899,350.952 54.446,351.274 54.569 C 351.424 54.627,351.587 54.635,351.635 54.587 C 351.683 54.539,351.635 54.500,351.528 54.500 C 351.267 54.500,351.278 53.883,351.542 53.777 C 351.656 53.731,351.675 53.693,351.583 53.693 C 351.492 53.693,351.323 53.731,351.208 53.777 M178.336 53.968 C 178.334 54.088,178.277 54.152,178.208 54.109 C 178.140 54.067,178.072 54.224,178.058 54.458 C 178.042 54.726,178.081 54.806,178.163 54.673 C 178.235 54.556,178.374 54.411,178.472 54.351 C 178.585 54.281,178.593 54.153,178.494 53.996 C 178.379 53.815,178.338 53.807,178.336 53.968 M198.180 53.967 C 198.165 54.213,198.629 55.167,198.764 55.167 C 198.813 55.167,198.801 55.083,198.738 54.981 C 198.675 54.879,198.727 54.724,198.854 54.635 C 199.042 54.503,199.039 54.487,198.833 54.544 C 198.685 54.585,198.504 54.438,198.389 54.182 C 198.281 53.944,198.188 53.847,198.180 53.967 M146.395 54.358 C 146.647 54.504,146.663 54.567,146.478 54.684 C 146.327 54.779,146.317 54.829,146.448 54.831 C 146.762 54.835,146.900 54.478,146.646 54.317 C 146.520 54.237,146.342 54.173,146.250 54.174 C 146.158 54.176,146.224 54.258,146.395 54.358 M189.401 55.192 C 189.331 55.305,189.355 55.340,189.456 55.277 C 189.554 55.217,189.677 55.354,189.735 55.584 C 189.793 55.813,189.915 56.000,190.007 56.000 C 190.100 56.000,190.059 55.775,189.917 55.500 C 189.630 54.946,189.574 54.912,189.401 55.192 M120.209 55.917 C 120.211 56.283,120.245 56.414,120.285 56.206 C 120.324 55.999,120.323 55.699,120.281 55.540 C 120.239 55.380,120.207 55.550,120.209 55.917 M147.173 55.676 C 147.169 55.819,147.277 56.082,147.411 56.260 C 147.725 56.674,147.728 56.379,147.417 55.833 C 147.264 55.566,147.176 55.510,147.173 55.676 M275.575 56.819 C 275.626 56.903,275.578 57.002,275.468 57.039 C 275.331 57.084,275.346 57.136,275.516 57.201 C 275.679 57.264,275.773 57.188,275.789 56.982 C 275.802 56.808,275.738 56.667,275.646 56.667 C 275.555 56.667,275.523 56.735,275.575 56.819 M209.833 57.177 C 209.833 57.274,209.758 57.307,209.667 57.250 C 209.575 57.193,209.500 57.186,209.500 57.234 C 209.500 57.282,209.634 57.393,209.798 57.481 C 210.035 57.608,210.095 57.576,210.095 57.320 C 210.095 57.144,210.036 57.000,209.964 57.000 C 209.892 57.000,209.833 57.079,209.833 57.177 M318.332 57.875 C 317.938 58.520,317.926 58.611,318.234 58.611 C 318.363 58.611,318.430 58.511,318.382 58.388 C 318.335 58.265,318.419 57.977,318.569 57.749 C 318.719 57.520,318.801 57.333,318.751 57.333 C 318.702 57.333,318.513 57.577,318.332 57.875 M119.750 58.333 C 119.687 58.530,119.681 58.736,119.735 58.790 C 119.789 58.845,119.833 58.766,119.833 58.616 C 119.833 58.432,119.928 58.374,120.125 58.438 C 120.297 58.493,120.348 58.473,120.250 58.389 C 120.158 58.310,120.034 58.185,119.974 58.111 C 119.913 58.036,119.813 58.136,119.750 58.333 M275.667 58.510 C 275.667 58.607,275.580 58.633,275.474 58.567 C 275.358 58.495,275.327 58.522,275.396 58.634 C 275.459 58.735,275.621 58.777,275.755 58.725 C 276.031 58.619,276.088 58.333,275.833 58.333 C 275.742 58.333,275.667 58.413,275.667 58.510 M298.128 58.630 C 298.075 58.834,298.094 58.962,298.170 58.914 C 298.247 58.867,298.357 58.980,298.416 59.164 C 298.475 59.349,298.597 59.500,298.688 59.500 C 298.779 59.500,298.811 59.431,298.759 59.348 C 298.707 59.264,298.721 59.164,298.791 59.125 C 298.860 59.086,298.823 59.077,298.708 59.105 C 298.594 59.133,298.500 59.090,298.500 59.009 C 298.500 58.928,298.594 58.823,298.708 58.777 C 298.838 58.725,298.812 58.688,298.639 58.680 C 298.486 58.673,298.331 58.575,298.293 58.463 C 298.256 58.350,298.181 58.426,298.128 58.630 M259.875 59.125 C 262.785 59.150,267.548 59.150,270.458 59.125 C 273.369 59.099,270.987 59.078,265.167 59.078 C 259.346 59.078,256.965 59.099,259.875 59.125 M284.943 59.240 C 284.881 59.403,284.905 59.475,285.002 59.415 C 285.093 59.359,285.173 59.449,285.180 59.615 C 285.187 59.781,285.230 59.826,285.275 59.715 C 285.320 59.603,285.288 59.389,285.203 59.238 C 285.061 58.984,285.042 58.984,284.943 59.240 M100.750 59.954 C 109.798 60.070,116.795 60.072,116.724 59.958 C 116.682 59.890,112.283 59.851,106.948 59.872 C 101.614 59.892,98.825 59.930,100.750 59.954 M96.912 70.167 C 96.912 75.712,96.933 77.981,96.958 75.208 C 96.984 72.435,96.984 67.898,96.958 65.125 C 96.933 62.352,96.912 64.621,96.912 70.167 M217.564 60.628 C 217.359 60.763,216.610 62.167,216.743 62.167 C 216.789 62.167,216.978 61.871,217.162 61.509 C 217.347 61.147,217.629 60.774,217.790 60.681 C 217.952 60.587,218.008 60.509,217.917 60.508 C 217.825 60.506,217.666 60.560,217.564 60.628 M149.461 60.862 C 149.414 60.985,149.478 61.181,149.604 61.299 C 149.874 61.551,149.931 61.246,149.687 60.861 C 149.570 60.676,149.532 60.676,149.461 60.862 M347.032 62.780 C 347.209 62.826,347.281 62.959,347.225 63.135 C 347.151 63.368,347.165 63.375,347.307 63.175 C 347.521 62.873,347.401 62.661,347.032 62.686 C 346.768 62.704,346.768 62.710,347.032 62.780 M325.154 64.542 C 325.045 64.899,325.064 65.167,325.199 65.167 C 325.293 65.167,325.328 65.059,325.277 64.927 C 325.227 64.796,325.275 64.652,325.384 64.607 C 325.532 64.547,325.530 64.523,325.375 64.513 C 325.260 64.506,325.161 64.519,325.154 64.542 M268.417 66.333 L 254.917 66.420 268.333 66.457 C 276.779 66.481,281.843 66.435,282.000 66.333 C 282.137 66.244,282.175 66.189,282.083 66.209 C 281.992 66.230,275.842 66.286,268.417 66.333 M373.897 67.198 C 373.830 67.308,373.863 67.427,373.972 67.463 C 374.080 67.499,374.119 67.609,374.059 67.707 C 373.992 67.815,374.028 67.836,374.149 67.761 C 374.295 67.671,374.300 67.578,374.168 67.418 C 374.034 67.257,374.043 67.176,374.201 67.113 C 374.349 67.053,374.354 67.022,374.218 67.013 C 374.109 67.006,373.964 67.089,373.897 67.198 M301.864 67.583 C 301.968 67.813,302.118 68.000,302.197 68.000 C 302.276 68.000,302.218 67.813,302.068 67.583 C 301.918 67.354,301.768 67.167,301.734 67.167 C 301.701 67.167,301.759 67.354,301.864 67.583 M304.742 68.015 C 304.595 68.299,304.516 68.571,304.565 68.620 C 304.614 68.670,304.743 68.515,304.851 68.277 C 304.960 68.039,305.112 67.883,305.189 67.931 C 305.266 67.978,305.285 67.901,305.230 67.759 C 305.093 67.402,305.047 67.426,304.742 68.015 M374.383 71.000 C 374.383 71.504,374.415 71.710,374.453 71.458 C 374.491 71.206,374.491 70.794,374.453 70.542 C 374.415 70.290,374.383 70.496,374.383 71.000 M171.262 71.611 C 171.204 71.764,171.244 71.970,171.352 72.070 C 171.497 72.202,171.517 72.193,171.427 72.034 C 171.360 71.916,171.395 71.710,171.506 71.576 C 171.625 71.433,171.638 71.333,171.538 71.333 C 171.445 71.333,171.321 71.458,171.262 71.611 M212.031 73.083 C 211.926 73.312,211.909 73.500,211.992 73.500 C 212.156 73.500,212.410 72.854,212.292 72.737 C 212.253 72.697,212.135 72.853,212.031 73.083 M257.500 72.724 C 257.500 72.784,257.650 72.983,257.833 73.167 C 258.017 73.350,258.167 73.437,258.167 73.359 C 258.167 73.282,258.017 73.083,257.833 72.917 C 257.650 72.751,257.500 72.664,257.500 72.724 M154.895 73.858 C 155.147 74.004,155.163 74.067,154.978 74.184 C 154.827 74.279,154.817 74.329,154.948 74.331 C 155.262 74.335,155.400 73.978,155.146 73.817 C 155.020 73.737,154.842 73.673,154.750 73.674 C 154.658 73.676,154.724 73.758,154.895 73.858 M139.442 74.875 C 139.485 74.944,139.661 75.000,139.833 75.000 C 140.006 75.000,140.182 74.944,140.224 74.875 C 140.267 74.806,140.091 74.750,139.833 74.750 C 139.576 74.750,139.400 74.806,139.442 74.875 M197.583 74.834 C 197.494 74.978,197.514 75.011,197.641 74.933 C 197.754 74.863,197.833 74.917,197.833 75.064 C 197.833 75.201,197.908 75.360,198.000 75.417 C 198.239 75.564,198.206 75.284,197.942 74.923 C 197.767 74.683,197.688 74.664,197.583 74.834 M357.875 76.286 C 358.127 76.324,358.540 76.324,358.792 76.286 C 359.044 76.248,358.837 76.217,358.333 76.217 C 357.829 76.217,357.623 76.248,357.875 76.286 M198.716 77.569 C 198.659 77.669,198.678 77.691,198.756 77.620 C 198.835 77.548,198.990 77.659,199.101 77.867 L 199.303 78.244 199.276 77.816 C 199.250 77.386,198.906 77.235,198.716 77.569 M157.062 78.858 C 157.313 79.004,157.329 79.067,157.145 79.184 C 156.994 79.279,156.984 79.329,157.115 79.331 C 157.429 79.335,157.566 78.978,157.313 78.817 C 157.187 78.737,157.008 78.673,156.917 78.674 C 156.825 78.676,156.890 78.758,157.062 78.858 M327.725 79.231 C 327.485 79.735,327.474 79.871,327.659 80.043 C 327.837 80.208,327.858 80.207,327.763 80.040 C 327.698 79.924,327.762 79.593,327.906 79.304 C 328.050 79.015,328.134 78.745,328.091 78.702 C 328.049 78.660,327.884 78.898,327.725 79.231 M209.185 80.465 C 209.055 80.709,209.092 80.768,209.388 80.782 C 209.587 80.791,209.660 80.765,209.551 80.722 C 209.442 80.680,209.393 80.537,209.444 80.406 C 209.575 80.064,209.376 80.110,209.185 80.465 M345.552 80.550 C 345.542 80.752,345.573 80.814,345.620 80.689 C 345.694 80.498,345.729 80.498,345.851 80.689 C 345.935 80.823,345.996 80.839,345.997 80.729 C 346.003 80.336,345.571 80.163,345.552 80.550 M318.558 80.724 C 318.572 80.967,318.640 81.166,318.708 81.167 C 318.878 81.167,318.862 80.803,318.680 80.516 C 318.574 80.349,318.539 80.408,318.558 80.724 M255.243 81.344 C 255.183 81.442,255.178 81.567,255.233 81.622 C 255.288 81.677,255.333 81.632,255.333 81.522 C 255.333 81.366,255.417 81.366,255.708 81.521 C 256.048 81.703,256.062 81.695,255.855 81.444 C 255.590 81.124,255.399 81.092,255.243 81.344 M132.552 82.169 C 132.810 82.247,133.129 82.400,133.261 82.509 C 133.392 82.618,133.500 82.635,133.500 82.547 C 133.500 82.348,132.750 81.995,132.367 82.014 C 132.211 82.022,132.294 82.092,132.552 82.169 M302.792 83.118 C 302.998 83.157,303.335 83.157,303.542 83.118 C 303.748 83.078,303.579 83.045,303.167 83.045 C 302.754 83.045,302.585 83.078,302.792 83.118 M265.500 83.827 C 265.054 83.916,265.191 83.944,266.083 83.946 C 266.852 83.947,267.108 83.905,266.833 83.824 C 266.337 83.676,266.254 83.676,265.500 83.827 M354.967 83.803 C 354.811 83.866,355.524 83.918,356.550 83.919 C 357.577 83.921,358.192 83.873,357.917 83.814 C 357.245 83.669,355.320 83.662,354.967 83.803 M148.569 93.728 C 148.520 93.854,148.505 94.360,148.535 94.853 L 148.589 95.750 148.669 94.625 C 148.751 93.492,148.730 93.308,148.569 93.728 " stroke="none" fill="#1498bc" fill-rule="evenodd"></path><path id="path3" d="" stroke="none" fill="#145040" fill-rule="evenodd"></path><path id="path4" d="" stroke="none" fill="#140444" fill-rule="evenodd"></path></g></svg>